<svg xmlns="http://www.w3.org/2000/svg" style="display:none" aria-hidden="true">
  <symbol id="nb-logo" viewBox="0 0 600 320">
    <g fill="currentColor" transform="translate(300 90)">
      <ellipse cx="0" cy="-70" rx="3" ry="70"/>
      <ellipse cx="-45" cy="-60" rx="3" ry="65" transform="rotate(-18 -45 -60)"/>
      <ellipse cx="45" cy="-60" rx="3" ry="65" transform="rotate(18 45 -60)"/>
      <ellipse cx="-85" cy="-40" rx="2.5" ry="55" transform="rotate(-32 -85 -40)"/>
      <ellipse cx="85" cy="-40" rx="2.5" ry="55" transform="rotate(32 85 -40)"/>
      <ellipse cx="-115" cy="-12" rx="2" ry="45" transform="rotate(-48 -115 -12)"/>
      <ellipse cx="115" cy="-12" rx="2" ry="45" transform="rotate(48 115 -12)"/>
    </g>
    <text x="300" y="260" text-anchor="middle" fill="currentColor" font-family="'Alfa Slab One','DM Serif Display',Georgia,serif" font-size="180" letter-spacing="-2">nikbinler</text>
    <g fill="currentColor" transform="translate(300 180) scale(0.55)">
      <circle cx="0" cy="-45" r="18" fill="none" stroke="currentColor" stroke-width="4"/>
      <circle cx="0" cy="-30" r="10"/>
      <path d="M-14 -18 Q-18 20 -22 70 L22 70 Q18 20 14 -18 Q7 -22 0 -22 Q-7 -22 -14 -18 Z"/>
      <path d="M-14 -10 Q-45 -20 -58 10 Q-48 0 -18 5 Z"/>
      <path d="M14 -10 Q45 -20 58 10 Q48 0 18 5 Z"/>
      <path d="M22 30 L55 55 M30 32 Q38 28 42 36 M38 40 Q46 36 50 44 M46 48 Q54 44 58 52" stroke="currentColor" stroke-width="2.5" fill="none"/>
    </g>
  </symbol>
</svg>
